name rise30.3154peak39.0474fall46.5389.mot
datacolumns 19
datarows 29
range 15.53827700000000 15.58494600000000
endheader
time	ground_force1_vx	ground_force1_vy	ground_force1_vz	ground_force1_px	ground_force1_py	ground_force1_pz	ground_force2_vx	ground_force2_vy	ground_force2_vz	ground_force2_px	ground_force2_py	ground_force2_pz	ground_torque1_x	ground_torque1_y	ground_torque1_z	ground_torque2_x	ground_torque2_y	ground_torque2_z	
15.53827700000000	-44.42390500000000	814.73433799999998	42.82160500000000	0.16914100000000	0.00000000000000	0.08121700000000	0.00000000000000	0.00000000000000	0.00000000000000	0.00000000000000	0.00000000000000	0.00000000000000	0.00000000000000	19.52860600000000	0.00000000000000	0.00000000000000	0.00000000000000	0.00000000000000	
15.53994400000000	-45.01045300000000	813.85200199999997	43.05332500000000	0.16813600000000	0.00000000000000	0.08118900000000	0.00000000000000	0.00000000000000	0.00000000000000	0.00000000000000	0.00000000000000	0.00000000000000	0.00000000000000	19.55222400000000	0.00000000000000	0.00000000000000	0.00000000000000	0.00000000000000	
15.54161500000000	-45.61531500000000	812.86869400000000	43.27587000000000	0.16711800000000	0.00000000000000	0.08116100000000	0.00000000000000	0.00000000000000	0.00000000000000	0.00000000000000	0.00000000000000	0.00000000000000	0.00000000000000	19.57500300000000	0.00000000000000	0.00000000000000	0.00000000000000	0.00000000000000	
15.54328100000000	-46.23882200000000	811.78234799999996	43.48826100000000	0.16608600000000	0.00000000000000	0.08113200000000	0.00000000000000	0.00000000000000	0.00000000000000	0.00000000000000	0.00000000000000	0.00000000000000	0.00000000000000	19.59682900000000	0.00000000000000	0.00000000000000	0.00000000000000	0.00000000000000	
15.54494700000000	-46.88122500000000	810.59084700000005	43.68951600000000	0.16504200000000	0.00000000000000	0.08110200000000	0.00000000000000	0.00000000000000	0.00000000000000	0.00000000000000	0.00000000000000	0.00000000000000	0.00000000000000	19.61758700000000	0.00000000000000	0.00000000000000	0.00000000000000	0.00000000000000	
15.54660900000000	-47.54269700000000	809.29202099999998	43.87865600000000	0.16398500000000	0.00000000000000	0.08107100000000	0.00000000000000	0.00000000000000	0.00000000000000	0.00000000000000	0.00000000000000	0.00000000000000	0.00000000000000	19.63715800000000	0.00000000000000	0.00000000000000	0.00000000000000	0.00000000000000	
15.54828200000000	-48.22332900000000	807.88364700000000	44.05470200000000	0.16291600000000	0.00000000000000	0.08103800000000	-1.39981300000000	3.68830500000000	1.19928100000000	0.00000000000000	0.00000000000000	0.00000000000000	0.00000000000000	19.65542600000000	0.00000000000000	0.00000000000000	0.42967700000000	0.00000000000000	
15.54994500000000	-48.92312600000000	806.36344999999994	44.21668300000000	0.16183500000000	0.00000000000000	0.08100500000000	-2.23008100000000	7.32310100000000	2.06043300000000	0.00000000000000	0.00000000000000	0.00000000000000	0.00000000000000	19.67226900000000	0.00000000000000	0.00000000000000	0.75754700000000	0.00000000000000	
15.55161200000000	-49.64200300000000	804.72910200000001	44.36363600000000	0.16074300000000	0.00000000000000	0.08097000000000	-3.16667600000000	11.74419200000000	3.06397000000000	0.00000000000000	0.00000000000000	0.00000000000000	0.00000000000000	19.68756800000000	0.00000000000000	0.00000000000000	1.14314300000000	0.00000000000000	
15.55327900000000	-50.37978800000000	802.97822199999996	44.49461200000000	0.15964200000000	0.00000000000000	0.08093400000000	-4.18031900000000	16.91273500000000	4.18812900000000	0.00000000000000	0.00000000000000	0.00000000000000	0.00000000000000	19.70120400000000	0.00000000000000	0.00000000000000	1.57915100000000	0.00000000000000	
15.55494100000000	-51.13621200000000	801.10838300000000	44.60867800000000	0.15853000000000	0.00000000000000	0.08089600000000	-5.23458300000000	22.75607800000000	5.40332200000000	0.00000000000000	0.00000000000000	0.00000000000000	0.00000000000000	19.71305700000000	0.00000000000000	0.00000000000000	2.05524700000000	0.00000000000000	
15.55661000000000	-51.91091500000000	799.11711300000002	44.70491900000000	0.15741000000000	0.00000000000000	0.08085700000000	-6.28824700000000	29.17332200000000	6.67407900000000	0.36397100000000	0.00000000000000	-0.08292000000000	0.00000000000000	19.72300600000000	0.00000000000000	0.00000000000000	4.46653100000000	0.00000000000000	
15.55827500000000	-52.70344100000000	797.00189399999999	44.78244500000000	0.15628300000000	0.00000000000000	0.08081600000000	-7.29826800000000	36.04390700000000	7.96167400000000	0.36778400000000	0.00000000000000	-0.08418200000000	0.00000000000000	19.73093300000000	0.00000000000000	0.00000000000000	5.38954400000000	0.00000000000000	
15.55994700000000	-53.51323700000000	794.76017300000001	44.84038800000000	0.15514900000000	0.00000000000000	0.08077300000000	-8.22297000000000	43.23806100000000	9.22707900000000	0.37125800000000	0.00000000000000	-0.08530400000000	0.00000000000000	19.73671900000000	0.00000000000000	0.00000000000000	6.31600300000000	0.00000000000000	
15.56162600000000	-54.33965000000000	792.38936200000001	44.87791200000000	0.15401000000000	0.00000000000000	0.08072800000000	-9.02504400000000	50.62762800000000	10.43384700000000	0.37445900000000	0.00000000000000	-0.08631100000000	0.00000000000000	19.74024600000000	0.00000000000000	0.00000000000000	7.22160500000000	0.00000000000000	
15.56327500000000	-55.18193200000000	789.88684499999999	44.89421200000000	0.15286600000000	0.00000000000000	0.08068200000000	-9.67395200000000	58.09583000000000	11.55055500000000	0.37743800000000	0.00000000000000	-0.08722200000000	0.00000000000000	19.74139900000000	0.00000000000000	0.00000000000000	8.08485900000000	0.00000000000000	
15.56494800000000	-56.03923600000000	787.24998300000004	44.88851700000000	0.15172000000000	0.00000000000000	0.08063300000000	-10.14752100000000	65.54490199999999	12.55254800000000	0.38023700000000	0.00000000000000	-0.08805100000000	0.00000000000000	19.74006000000000	0.00000000000000	0.00000000000000	8.88833900000000	0.00000000000000	
15.56661300000000	-56.91061500000000	784.47612400000003	44.86009700000000	0.15057100000000	0.00000000000000	0.08058100000000	-10.43264300000000	72.90108499999999	13.42289600000000	0.38288600000000	0.00000000000000	-0.08880900000000	0.00000000000000	19.73611300000000	0.00000000000000	0.00000000000000	9.61941900000000	0.00000000000000	
15.56827400000000	-57.79502600000000	781.56260499999996	44.80826100000000	0.14942200000000	0.00000000000000	0.08052800000000	-10.52512800000000	80.11685000000000	14.15257300000000	0.38541100000000	0.00000000000000	-0.08950800000000	0.00000000000000	19.72944300000000	0.00000000000000	0.00000000000000	10.27051800000000	0.00000000000000	
15.56994200000000	-58.69132800000000	778.50676299999998	44.73236300000000	0.14827400000000	0.00000000000000	0.08047200000000	-10.42885800000000	87.17059999999999	14.73995800000000	0.38783100000000	0.00000000000000	-0.09015400000000	0.00000000000000	19.71993600000000	0.00000000000000	0.00000000000000	10.83888800000000	0.00000000000000	
15.57161100000000	-59.59828500000000	775.30594299999996	44.63180600000000	0.14712900000000	0.00000000000000	0.08041300000000	-10.15441900000000	94.06428600000000	15.18981500000000	0.39016400000000	0.00000000000000	-0.09075500000000	0.00000000000000	19.70747600000000	0.00000000000000	0.00000000000000	11.32604500000000	0.00000000000000	
15.57327300000000	-60.51456500000000	771.95750499999997	44.50604100000000	0.14598700000000	0.00000000000000	0.08035200000000	-9.71741900000000	100.81949200000000	15.51193200000000	0.39242100000000	0.00000000000000	-0.09131600000000	0.00000000000000	19.69194800000000	0.00000000000000	0.00000000000000	11.73694600000000	0.00000000000000	
15.57494100000000	-61.43874500000000	768.45883400000002	44.35457200000000	0.14485000000000	0.00000000000000	0.08028800000000	-9.13668300000000	107.47259000000000	15.71957400000000	0.39461400000000	0.00000000000000	-0.09184200000000	0.00000000000000	19.67323700000000	0.00000000000000	0.00000000000000	12.07903200000000	0.00000000000000	
15.57661200000000	-62.36930900000000	764.80735000000004	44.17695800000000	0.14371900000000	0.00000000000000	0.08022100000000	-8.43250000000000	114.06951599999999	15.82793500000000	0.39675100000000	0.00000000000000	-0.09233600000000	0.00000000000000	19.65122600000000	0.00000000000000	0.00000000000000	12.36122700000000	0.00000000000000	
15.57827400000000	-63.30465400000000	761.00051399999995	43.97281800000000	0.14259600000000	0.00000000000000	0.08015100000000	-7.62504500000000	120.66067600000000	15.85268900000000	0.39883700000000	0.00000000000000	-0.09280300000000	0.00000000000000	19.62579700000000	0.00000000000000	0.00000000000000	12.59299500000000	0.00000000000000	
15.57994000000000	-64.24309000000000	757.03584599999999	43.74182800000000	0.14148300000000	0.00000000000000	0.08007800000000	-6.73308800000000	127.29634000000000	15.80876300000000	0.40088000000000	0.00000000000000	-0.09324500000000	0.00000000000000	19.59683300000000	0.00000000000000	0.00000000000000	12.78350700000000	0.00000000000000	
15.58160700000000	-65.18284500000000	752.91092700000002	43.48372600000000	0.14038000000000	0.00000000000000	0.08000200000000	-5.77302300000000	134.02282800000000	15.70937300000000	0.40288300000000	0.00000000000000	-0.09366400000000	0.00000000000000	19.56421200000000	0.00000000000000	0.00000000000000	12.94097800000000	0.00000000000000	
15.58327600000000	-66.12206900000000	748.62341400000003	43.19831600000000	0.13928900000000	0.00000000000000	0.07992300000000	-4.75825500000000	140.87962999999999	15.56535900000000	0.40484900000000	0.00000000000000	-0.09406300000000	0.00000000000000	19.52781400000000	0.00000000000000	0.00000000000000	13.07218600000000	0.00000000000000	
15.58494600000000	-67.05883200000000	744.17105500000002	42.88546400000000	0.13821100000000	0.00000000000000	0.07984100000000	-3.69891400000000	147.89751699999999	15.38482100000000	0.40678100000000	0.00000000000000	-0.09444400000000	0.00000000000000	19.48751200000000	0.00000000000000	0.00000000000000	13.18218400000000	0.00000000000000	
